<svg xmlns="http://www.w3.org/2000/svg" xmlns:xlink="http://www.w3.org/1999/xlink" fill="#131313" version="1.1" width="24" height="24" viewBox="0 0 24 24"><g><g><g><path d="M8.50439453125,5.2534260749816895L12.10739453125,5.2534260749816895Q12.181264531250001,5.2534260749816895,12.253704531250001,5.2390150749816895Q12.326154531250001,5.2246040749816895,12.39440453125,5.19633607498169Q12.46264453125,5.168067074981689,12.52406453125,5.127028074981689Q12.58548453125,5.08598907498169,12.63772453125,5.03375607498169Q12.68995453125,4.9815230749816894,12.73099453125,4.92010407498169Q12.77203453125,4.8586840749816895,12.80030453125,4.790439074981689Q12.82856453125,4.722193074981689,12.84297453125,4.649744074981689Q12.85739453125,4.577294574981689,12.85739453125,4.5034260749816895Q12.85739453125,4.42955757498169,12.84297453125,4.3571080749816895Q12.82856453125,4.28465907498169,12.80030453125,4.2164130749816895Q12.77203453125,4.148168074981689,12.73099453125,4.086748074981689Q12.68995453125,4.0253290749816895,12.63772453125,3.9730960749816893Q12.58548453125,3.9208630749816895,12.52406453125,3.8798240749816895Q12.46264453125,3.8387850749816894,12.39440453125,3.8105160749816895Q12.326154531250001,3.7822480749816894,12.253704531250001,3.7678370749816894Q12.181264531250001,3.7534260749816895,12.10739453125,3.7534260749816895L8.50439453125,3.7534260749816895Q6.53688453125,3.7534260749816895,5.14563753125,5.14466907498169Q3.75439453125,6.53591607498169,3.75439453125,8.50342607498169L3.75439453125,15.50342607498169Q3.75439453125,17.47092607498169,5.14563753125,18.86222607498169Q6.53688453125,20.25342607498169,8.50439453125,20.25342607498169L15.50439453125,20.25342607498169Q17.47189453125,20.25342607498169,18.863194531250002,18.86222607498169Q20.25439453125,17.47092607498169,20.25439453125,15.50342607498169L20.25439453125,10.848406074981689Q20.25439453125,10.77453607498169,20.239994531249998,10.70208607498169Q20.22559453125,10.62963607498169,20.19729453125,10.56139607498169Q20.16899453125,10.49314607498169,20.12799453125,10.43172607498169Q20.08699453125,10.37030607498169,20.03469453125,10.31807607498169Q19.982494531249998,10.265846074981688,19.92109453125,10.22480607498169Q19.85969453125,10.18376607498169,19.79139453125,10.15549607498169Q19.72319453125,10.127226074981689,19.65069453125,10.11281607498169Q19.578294531250002,10.098406074981689,19.50439453125,10.098406074981689Q19.430494531249998,10.098406074981689,19.35809453125,10.11281607498169Q19.28559453125,10.127226074981689,19.21739453125,10.15549607498169Q19.14909453125,10.18376607498169,19.08769453125,10.22480607498169Q19.026294531250002,10.265846074981688,18.97409453125,10.31807607498169Q18.92179453125,10.37030607498169,18.88079453125,10.43172607498169Q18.83979453125,10.49314607498169,18.81149453125,10.56139607498169Q18.78319453125,10.62963607498169,18.768794531250002,10.70208607498169Q18.75439453125,10.77453607498169,18.75439453125,10.848406074981689L18.75439453125,15.50342607498169Q18.75439453125,16.84962607498169,17.802494531249998,17.801526074981687Q16.85059453125,18.75342607498169,15.50439453125,18.75342607498169L8.50439453125,18.75342607498169Q7.15820453125,18.75342607498169,6.20629453125,17.801526074981687Q5.25439453125,16.84962607498169,5.25439453125,15.50342607498169L5.25439453125,8.50342607498169Q5.25439453125,7.1572360749816895,6.20629453125,6.20532607498169Q7.15820453125,5.2534260749816895,8.50439453125,5.2534260749816895Z" fill-rule="evenodd"  fill-opacity="1"/></g><g><g><path d="M19.163727544097902,7.399635113718033Q19.2372275440979,7.399063113718033,19.3092175440979,7.3842341137180325Q19.3812075440979,7.369404113718033,19.4489475440979,7.340881113718033Q19.5166875440979,7.312358113718033,19.577597544097898,7.271227113718033Q19.6385175440979,7.230096113718033,19.6902875440979,7.177921113718033Q19.7420575440979,7.125747113718033,19.782707544097903,7.064515113718032Q19.8233675440979,7.003282113718033,19.8513575440979,6.9353221137180325Q19.8793575440979,6.867362113718033,19.8936275440979,6.795260113718033Q19.9078975440979,6.723158513718033,19.9078975440979,6.649658113718033Q19.9078975440979,6.575789613718033,19.8934875440979,6.503340113718033Q19.8790675440979,6.430891113718033,19.8508075440979,6.362645113718033Q19.822537544097898,6.294400113718033,19.781497544097903,6.232980113718033Q19.7404575440979,6.171561113718033,19.6882275440979,6.119328113718033Q19.6359875440979,6.0670951137180325,19.5745675440979,6.026056113718033Q19.5131475440979,5.985017113718033,19.4449075440979,5.9567481137180325Q19.376657544097903,5.928480113718033,19.3042075440979,5.914069113718033Q19.2317575440979,5.899658113718033,19.1578975440979,5.899658113718033L19.1520575440979,5.8996811137180325L19.1516675440979,5.899684113718033Q15.212567544097901,5.930426113718033,13.0655475440979,7.934438113718032Q10.8990985440979,9.956588113718032,10.829046544097901,14.276478113718033Q10.8289475440979,14.282558113718032,10.8289475440979,14.288638113718033Q10.8289475440979,14.362508113718032,10.8433585440979,14.434958113718032Q10.8577695440979,14.507408113718032,10.886037544097901,14.575648113718032Q10.9143065440979,14.643898113718032,10.9553455440979,14.705318113718032Q10.9963845440979,14.766738113718032,11.048617544097901,14.818968113718032Q11.1008505440979,14.871198113718032,11.162269544097901,14.912238113718033Q11.223689544097901,14.953278113718033,11.2919345440979,14.981548113718032Q11.3601805440979,15.009818113718033,11.4326295440979,15.024228113718033Q11.5050790440979,15.038638113718033,11.5789475440979,15.038638113718033Q11.6520487440979,15.038638113718033,11.7237745440979,15.024518113718033Q11.7954995440979,15.010408113718032,11.8631485440979,14.982708113718033Q11.9307985440979,14.955008113718034,11.9918255440979,14.914768113718033Q12.0528525440979,14.874518113718032,12.104960544097901,14.823248113718034Q12.1570685440979,14.771978113718033,12.1982955440979,14.711618113718032Q12.2395215440979,14.651248113718033,12.2683155440979,14.584058113718033Q12.2971095440979,14.516868113718033,12.312386544097901,14.445378113718032Q12.3276635440979,14.373888113718033,12.3288485440979,14.300798113718033Q12.3885665440979,10.618218113718033,14.089057544097901,9.030988113718033Q15.8084375440979,7.426137113718033,19.162047544097902,7.3996491137180325L19.163727544097902,7.399635113718033Z" fill-rule="evenodd"  fill-opacity="1"/></g><g><path d="M17.582738974365235,4.200814499742508L19.662874974365234,6.095142499742508Q19.779924974365233,6.201732499742508,19.843914974365234,6.346542499742508Q19.907894974365234,6.491342499742508,19.907894974365234,6.649662499742508Q19.907894974365234,6.723522499742508,19.893484974365233,6.795972499742508Q19.879074974365235,6.868422499742508,19.850804974365236,6.936672499742508Q19.822534974365233,7.004912499742508,19.781494974365234,7.066332499742508Q19.740454974365235,7.127752499742508,19.688224974365234,7.179992499742507Q19.635994974365236,7.232222499742508,19.574574974365234,7.273262499742508Q19.513154974365236,7.314302499742508,19.444904974365233,7.342562499742508Q19.376664974365234,7.370832499742508,19.304214974365234,7.385242499742509Q19.231764974365234,7.399662499742508,19.157894974365234,7.399662499742508Q19.017794974365234,7.399662499742508,18.887144974365235,7.349082499742508Q18.756494974365236,7.298502499742508,18.652914974365235,7.2041724997425085L18.652584974365233,7.203882499742508L16.572770974365234,5.309850499742508Q16.455720974365235,5.203257499742508,16.391737974365235,5.0584504997425075Q16.327754974365234,4.913644499742508,16.327754974365234,4.755332499742508Q16.327754974365234,4.681463999742508,16.342165974365233,4.609014499742508Q16.356576974365236,4.536565499742508,16.384844974365233,4.468319499742508Q16.413113974365235,4.400074499742508,16.454152974365236,4.338654499742508Q16.495191974365234,4.277235499742508,16.547424974365235,4.225002499742508Q16.599657974365236,4.1727694997425075,16.661076974365233,4.131730499742508Q16.722496974365235,4.090691499742508,16.790741974365233,4.062422499742508Q16.858987974365235,4.034154499742508,16.931436974365234,4.019743499742508Q17.003886474365235,4.005332499742508,17.077754974365234,4.005332499742508Q17.217853974365234,4.005332499742508,17.348504974365234,4.0559084997425074Q17.479155974365234,4.106483499742508,17.582738974365235,4.200814499742508Z" fill-rule="evenodd"  fill-opacity="1"/></g></g></g></g></svg>