<svg xmlns="http://www.w3.org/2000/svg" xmlns:xlink="http://www.w3.org/1999/xlink" fill="#131313" version="1.1" width="24" height="24" viewBox="0 0 24 24"><g><g><path d="M8.93402,5.414334Q9.01394,5.330619,9.056989999999999,5.223181Q9.10005,5.115743,9.10005,5Q9.10005,4.9409051999999996,9.088519999999999,4.882946Q9.07699,4.824986,9.05438,4.77039Q9.03176,4.715793,8.99893,4.666658Q8.9661,4.617522,8.92431,4.575736Q8.88252,4.53395,8.83339,4.501118Q8.78425,4.468287,8.729659999999999,4.445672Q8.67506,4.423058,8.6171,4.411529Q8.55914,4.4,8.50005,4.4Q8.377089999999999,4.4,8.26404,4.448366Q8.15099,4.496732,8.06608,4.585666L8.06603,4.585723L2.0420872,10.895109999999999Q1.5993330000000001,11.35884,1.5993330000000001,12Q1.5993330000000001,12.64116,2.0420873,13.10489L8.06556,19.413800000000002L8.06608,19.4143Q8.15099,19.5033,8.26404,19.5516Q8.377089999999999,19.6,8.50005,19.6Q8.55914,19.6,8.6171,19.5885Q8.67506,19.576900000000002,8.729659999999999,19.554299999999998Q8.78425,19.5317,8.83339,19.4989Q8.88252,19.466,8.92431,19.424300000000002Q8.9661,19.3825,8.99893,19.3333Q9.03176,19.2842,9.05438,19.229599999999998Q9.07699,19.175,9.088519999999999,19.1171Q9.10005,19.0591,9.10005,19Q9.10005,18.8843,9.057,18.7768Q9.01394,18.6694,8.93402,18.5857L8.933489999999999,18.5851L2.910022,12.27622Q2.646295,12,2.910021,11.72378L8.933959999999999,5.41439L8.93402,5.414334Z" fill-rule="evenodd" fill-opacity="1"/></g></g></svg>